/* XPM */
static char *_fbc09e3d0a841aeb2da415351a1993foZTbdTTdSb7Om5NB[] = {
/* columns rows colors chars-per-pixel */
"64 64 59 1 ",
"  c black",
". c gray8",
"X c gray24",
"o c gray12",
"O c gray1",
"+ c gray4",
"@ c #1E1E1E",
"# c #464646",
"$ c #282828",
"% c gray2",
"& c gray3",
"* c #4E4E4E",
"= c gray44",
"- c gray34",
"; c gray20",
": c #5F5F5F",
"> c #808080",
", c #676767",
"< c #313131",
"1 c #111111",
"2 c #444444",
"3 c gray63",
"4 c #898989",
"5 c #686868",
"6 c #8B8B8B",
"7 c gray57",
"8 c #070707",
"9 c gray47",
"0 c gray60",
"q c gray66",
"w c #B7B7B7",
"e c #ACACAC",
"r c #959595",
"t c gray30",
"y c #9D9D9D",
"u c #AFAFAF",
"i c gray80",
"p c gray16",
"a c #323232",
"s c #939393",
"d c gray23",
"f c #888888",
"g c gray62",
"h c gray68",
"j c #C5C5C5",
"k c #BBBBBB",
"l c gray70",
"z c gray75",
"x c #B9B9B9",
"c c gray",
"v c #9A9A9A",
"b c #A7A7A7",
"n c gray65",
"m c #A5A5A5",
"M c gray61",
"N c #515151",
"B c #929292",
"V c gray37",
"C c #909090",
/* pixels */
"                                                                ",
"                                                                ",
"                                                                ",
"                                                                ",
"                                                                ",
"                                                                ",
"                                                                ",
"                                                                ",
"                                                                ",
"                                                                ",
"                                                                ",
"                                                                ",
"                                                                ",
"                                                                ",
"                                                                ",
"                                                                ",
"                                                                ",
"                                                                ",
"                                                                ",
"                                                                ",
"                                                                ",
"                                                                ",
"                                                                ",
"                                                                ",
"                                                                ",
"                                                                ",
"                                                                ",
"                                                                ",
"                                                                ",
"                                                                ",
"                                                                ",
"           .Xo                 XX                 oX.           ",
"           .Xo                 XX                 oX.           ",
"           .Xo                 XX                 oX.           ",
"           .Xo                 XX                 oX.           ",
"           .Xo                 XX                 oX.           ",
"         O+@#$+%             &+##+&             %+$#@+O         ",
"         .X*=-Xo             ;X==X;             oX-=*X.         ",
"         .X*=-Xo             ;X==X;             oX-=*X.         ",
"         .X*=-Xo             ;X==X;             oX-=*X.         ",
"       O.$*:>,*<.+         1.2*>>*2.1         +.<*,>:*$.O       ",
"       +X*=>34=-Xo         ;X5=33=5X;         oX-=43>=*X+       ",
"       +X*=>34=-Xo         ;X5=33=5X;         oX-=43>=*X+       ",
"       +X*=>34=-Xo         ;X5=33=5X;         oX-=43>=*X+       ",
"     O.@*:>637>,*<.8     1.2*9>33>9*2.1     8.<*,>736>:*@.O     ",
"     +X#=>333334=-X.     ;X5=033330=5X;     .X-=433333>=#X+     ",
"     +X#=>333334=-X.     ;X5=033330=5X;     .X-=433333>=#X+     ",
"     +X#=>333334=-X.     ;X5=033330=5X;     .X-=433333>=#X+     ",
"     +X#=>333334=-X.     ;X5=033330=5X;     .X-=433333>=#X+     ",
"     +X#=>333334=-X.     ;X5=033330=5X;     .X-=433333>=#X+     ",
"   %o$-:473qwe3r4=-<o+ .ot->4y3ww3y4>-to. +o<-=4r3333374:-$o%   ",
"   +X#=9333uiw3334=*X. pX5=0333ii3330=5Xp .X*=43333333339=#X+   ",
"   +X#=9333uiw3334=*X. pX5=0333ii3330=5Xp .X*=43333333339=#X+   ",
"   +X#=9333uiw3334=*X. pX5=0333ii3330=5Xp .X*=43333333339=#X+   ",
"  pa:,7s333uiw33307=:dpt:f7g333ii333g7f:tpd:=70333333333s7,:ap  ",
"  X#=933333uiw33333>=*X:=033333ii333330=:X*=>33333333333339=#X  ",
"  X#=9333hjkqwjl333>=*X:=0333zjqqjz3330=:X*=>333ljl3xjh3339=#X  ",
"  X#=9333uic3wiw333>=*X:=0333ji33ij3330=:X*=>333wiw3ciu3339=#X  ",
"  X#=9333uic3wiw333>=*X:=0333ji33ij3330=:X*=>333wiw3ciu3339=#X  ",
"  X#=9333uic3wiw333>=*X:=0333ji33ij3330=:X*=>333wiw3ciu3339=#X  ",
";;5=0v3bjkqn3mqwjl3M095N#B3zjhq33qhjz3B#VCs0M3ljwqm3nqkjb3v0=5;;",
"XX=9333qic33333wiw333>=*XC3jiq3333qij3CXV33333wiw33333ciq3339=XX",
"XX=933333333333333333>=*XC333333333333CXV33333333333333333339=XX",
"XX=933333333333333333>=*XC333333333333CXV33333333333333333339=XX"
};
